<svg width="60" height="60" fill="none" xmlns="http://www.w3.org/2000/svg"><path d="M58.173 7.79C53.887 1.61 34.513.3 32.325.131L29.87 0v38.09a13.505 13.505 0 0 0-1.83-1.05 21.434 21.434 0 0 0-7.194-1.634 21.91 21.91 0 0 0-7.382.867C4.357 38.763-1.558 45.879.362 52.134c.428 1.323 1.176 2.557 2.197 3.627 1.022 1.07 2.295 1.951 3.74 2.59 2.478 1.11 5.25 1.676 8.058 1.648a25.062 25.062 0 0 0 6.585-.88c8.192-2.21 13.772-8.109 13.526-13.783v-31.59a75.897 75.897 0 0 1 14.62 2.677 2.635 2.635 0 0 0 1.712-.036c.542-.202.966-.576 1.179-1.04a1.6 1.6 0 0 0-.043-1.436c-.24-.455-.687-.811-1.24-.99a81.757 81.757 0 0 0-16.362-2.94V4.064c7.433.674 17.857 2.584 19.91 5.617 4.465 6.386-5.2 13.783-5.29 13.858-.406.338-.642.793-.659 1.273-.017.48.185.946.566 1.304.38.358.91.58 1.48.619.57.04 1.136-.106 1.582-.406.603-.393 12.544-9.475 6.25-18.539ZM19.491 55.56c-1.805.55-3.722.79-5.64.706a16.59 16.59 0 0 1-5.52-1.192 7.303 7.303 0 0 1-2.374-1.605 5.918 5.918 0 0 1-1.399-2.271c-1.34-4.364 3.237-9.457 10.223-11.349a19.747 19.747 0 0 1 5.134-.692c2.056-.034 4.09.366 5.915 1.16a7.313 7.313 0 0 1 2.373 1.605 5.918 5.918 0 0 1 1.4 2.272c1.472 4.382-3.103 9.475-10.112 11.367Z" fill="#D1C7AD"/></svg>