<svg width="321" height="103" fill="none" xmlns="http://www.w3.org/2000/svg"><g clip-path="url(#a)"><path d="M37.742.659a39.264 39.264 0 0 0-5.41 2.233 41.56 41.56 0 0 0-6.575 4.07 29.807 29.807 0 0 0-3.097 2.724c-.046.123.374.212 1.766.368a43.55 43.55 0 0 1 5.633 1.245c7.785 2.457 13.899 6.873 18.074 13.002 2.383 3.432 3.963 7.459 4.601 11.724a31.795 31.795 0 0 1 0 7.537 39.883 39.883 0 0 0-.238 1.507c0 .29.395-.157 1.129-1.262a31.687 31.687 0 0 0 4.13-10.484c.547-2.69.703-8.09.309-10.44a47.775 47.775 0 0 1-.31-1.998 33.769 33.769 0 0 0-1.735-5.84C53.62 9.118 49.375 4.335 44.054 1.563 42.535.776 40.41-.022 39.878-.006c-.724.17-1.437.393-2.136.665Z" fill="url(#b)"/><path d="M59.101 13.465a40.18 40.18 0 0 1 2.268 7.425c1.817 9.608-.577 19.372-6.428 26.239a24.002 24.002 0 0 1-2.673 2.841c-.376.25-.736.528-1.078.832a27.04 27.04 0 0 1-7.085 4.165c-.982.402-1.519.68-1.377.742 1.098.413 5.35.196 8.604-.435 6.098-1.204 11.8-4.162 16.53-8.575 4.52-4.321 7.41-9.49 8.524-15.269.465-2.411.344-6.62-.253-8.714-.36-1.217-6.256-5.583-10.123-7.565-2.065-1.027-6.474-2.69-7.162-2.702-.152-.01-.04.369.253 1.016Z" fill="url(#c)"/><path d="m16.864 13.142-1.564.234c-2.44.335-12.182 4.946-12.916 6.057a9.78 9.78 0 0 0-.612 2.105c-.33 1.58-.395 2.339-.547 3.383a51.702 51.702 0 0 0-.157 7.96 57.93 57.93 0 0 0 .952 5.768c.172.597.172.597.44.273 2.753-3.517 5.942-6.61 8.493-8.256.233-.151 1.012-.676 1.564-1.044a35.024 35.024 0 0 1 6.66-3.166c9.79-3.489 20.474-1.937 28.07 4.076.347.314.732.571 1.145.764.106-.106-1.19-2.568-2.066-3.874-2.804-4.024-6.348-7.348-10.4-9.753-5.143-3.02-10.877-4.608-16.703-4.622-1.058.033-2.141.067-2.359.095Z" fill="url(#d)"/><path d="M27.184 28.042c-5.545.763-10.847 2.97-15.467 6.436C5.507 39.045 1.301 45.733.192 52.79a28.58 28.58 0 0 0 .112 7.425c.187.876.278 1.043 1.139 1.875 4.449 4.042 9.608 7.024 15.153 8.76 1.205.357 1.549.34 1.25-.028a37.14 37.14 0 0 1-1.518-3.83 47.55 47.55 0 0 1-1.114-4.366c-.794-5.102-.734-9.127.238-13.526a32.374 32.374 0 0 1 3.543-8.838c3.159-5.292 8.523-9.764 14.217-11.852.765-.279.876-.368.623-.463-.486-.184-5.041-.123-6.65.095Z" fill="url(#e)"/><path d="M23.697 38.844a.888.888 0 0 0-.268.447.276.276 0 0 1-.038.136.24.24 0 0 1-.099.093c-.207.078-1.316 1.909-2.024 3.383-3.24 6.699-3.877 15.157-1.736 22.643 1.013 3.568 2.678 6.87 4.891 9.702 2.214 2.832 4.93 5.135 7.98 6.767 1.467.765 3.659 1.596 4.22 1.596.816 0 5.897-1.892 7.73-2.858.404-.234 1.184-.647 1.75-.954a38.515 38.515 0 0 0 6.864-4.89l1.144-1.045-2.161-.335c-4.842-.676-9.523-2.362-13.793-4.968-.971-.598-2.343-1.597-2.874-1.982-4.234-3.232-7.614-7.645-9.794-12.79a27.96 27.96 0 0 1-1.686-13.36c.104-.598.166-1.205.188-1.814 0 0-.152.078-.294.23Z" fill="url(#f)"/><path d="M74.174 44.544c-.292.49-.61.96-.952 1.407-.232.402-2.252 3.143-6.235 6.085-4.146 3.153-8.838 5.328-13.782 6.386-2.025.414-2.172.43-5.375.559a25.469 25.469 0 0 1-4.662-.151c-4.989-.605-9.759-2.588-13.868-5.767-.89-.703-1.048-.798-.951-.491.576 1.91 2.905 5.32 5.395 7.888 4.405 4.442 9.766 7.568 15.574 9.083 5.972 1.552 12.496 1.306 17.547-.675 2.8-1.089 6.757-3.612 7.395-4.7.344-.56.987-3.954 1.24-6.382a40.55 40.55 0 0 0-.648-11.606c-.101-.492-.334-1.809-.567-1.798-.045.006-.086.084-.111.162Z" fill="url(#g)"/><path d="M154.695 10.93a15.839 15.839 0 0 1-.947 5.556 18.929 18.929 0 0 1-2.531 4.689 21.838 21.838 0 0 1-3.644 3.863 33.359 33.359 0 0 1-4.322 3.048 39.784 39.784 0 0 1-4.515 2.312 55.85 55.85 0 0 1-4.246 1.646c-.675 1.679-1.36 3.616-2.055 5.812a142.377 142.377 0 0 0-1.939 6.7 91.249 91.249 0 0 0-1.442 6.503 29.582 29.582 0 0 0-.567 5.197 7.569 7.569 0 0 0 .299 2.233 5.29 5.29 0 0 0 .764 1.575c.275.383.62.699 1.012.926.327.196.691.303 1.063.313a2.775 2.775 0 0 0 1.863-.837 9.587 9.587 0 0 0 1.741-2.233 24.196 24.196 0 0 0 1.584-3.266c.506-1.24.957-2.54 1.372-3.908-.446 1.489-.9 2.91-1.362 4.265a24.706 24.706 0 0 1-1.518 3.579 8.919 8.919 0 0 1-1.812 2.45 3.27 3.27 0 0 1-2.263.905 2.59 2.59 0 0 1-1.412-.425 3.864 3.864 0 0 1-1.174-1.267 7.232 7.232 0 0 1-.81-2.093 12.92 12.92 0 0 1-.298-2.931c.022-1.816.191-3.627.506-5.41a86.26 86.26 0 0 1 1.28-6.27 90.091 90.091 0 0 1 1.721-6.168c.634-1.987 1.243-3.71 1.827-5.17l-2.566.525-8.979 22.538a26.349 26.349 0 0 1-2.495 5.124c-.693.966-1.235 1.452-1.615 1.452-.248 0-.435-.173-.556-.525a4.303 4.303 0 0 1-.183-1.379c.009-.75.082-1.498.218-2.233.162-.9.389-1.785.678-2.646.338-1.05.788-2.384 1.352-4.003a307.238 307.238 0 0 1 1.918-5.337 253.435 253.435 0 0 1 2.298-6.001c.82-2.066 1.662-4.048 2.525-5.946l-3.117.715a83.293 83.293 0 0 1-2.566 5.717 87.01 87.01 0 0 1-3.23 5.956 71.845 71.845 0 0 1-3.73 5.644 40.68 40.68 0 0 1-4.049 4.745 20.658 20.658 0 0 1-4.135 3.26 7.999 7.999 0 0 1-4.049 1.218c-1.385-.011-2.73-.503-3.847-1.407-1.204-.932-2.303-2.501-3.29-4.69a35.756 35.756 0 0 0-2.733 5.382 43.6 43.6 0 0 0-1.938 5.935 50.38 50.38 0 0 0-1.16 6.291 54.605 54.605 0 0 0-.379 6.41 48.468 48.468 0 0 0 .81 9.194 26.791 26.791 0 0 0 2.364 7.218c.93 1.883 2.248 3.5 3.846 4.723 1.547 1.126 3.366 1.71 5.219 1.675a6.733 6.733 0 0 0 2.839-.81 16.778 16.778 0 0 0 3.477-2.356 25.466 25.466 0 0 0 3.604-3.907 28.777 28.777 0 0 0 3.209-5.41 36.012 36.012 0 0 0 2.308-6.839 35.88 35.88 0 0 0 .89-8.24 14.854 14.854 0 0 0-.465-3.813 8.632 8.632 0 0 0-1.154-2.646 4.477 4.477 0 0 0-1.665-1.496 4.248 4.248 0 0 0-1.939-.48c-1.132.018-2.212.522-3.011 1.407a14.435 14.435 0 0 0-2.486 3.6 30.422 30.422 0 0 0-1.928 4.88 53.894 53.894 0 0 0-1.326 5.27 40.905 40.905 0 0 1 1.235-5.65 28.218 28.218 0 0 1 1.964-5.024 13.714 13.714 0 0 1 2.561-3.601c.828-.867 1.921-1.359 3.062-1.379a3.989 3.989 0 0 1 2.156.653 5.751 5.751 0 0 1 1.817 1.932c.575.989.999 2.075 1.255 3.215a18.81 18.81 0 0 1 .476 4.466 35.32 35.32 0 0 1-.855 7.961 34.87 34.87 0 0 1-2.253 6.7 27.503 27.503 0 0 1-3.208 5.359 24.236 24.236 0 0 1-3.731 3.908 16.593 16.593 0 0 1-3.796 2.406 8.538 8.538 0 0 1-3.431.837c-1.7-.009-3.36-.564-4.778-1.596-1.616-1.188-2.97-2.76-3.963-4.6a27.581 27.581 0 0 1-2.688-7.258 42.377 42.377 0 0 1-1.012-9.602c.002-2.241.144-4.48.425-6.7a55.915 55.915 0 0 1 1.245-6.648 49.796 49.796 0 0 1 2.025-6.314 39.768 39.768 0 0 1 2.84-5.79 21.415 21.415 0 0 1-1.12-3.907 30.563 30.563 0 0 1-.505-5.812c-.012-2 .166-3.997.53-5.956a28.711 28.711 0 0 1 1.433-5.053 21.622 21.622 0 0 1 2.09-4.075 17.735 17.735 0 0 1 2.526-3.054 10.39 10.39 0 0 1 2.652-1.881 6.027 6.027 0 0 1 2.602-.642 5.439 5.439 0 0 1 2.91.81 6.893 6.893 0 0 1 2.247 2.333 12.64 12.64 0 0 1 1.458 3.718c.361 1.644.531 3.333.506 5.024v.665c0 .217 0 .463-.035.72a26.935 26.935 0 0 1 5.992-2.457 47.782 47.782 0 0 1 5.603-1.166 163.825 163.825 0 0 0 2.217-4.288c.688-1.401 1.397-2.791 2.111-4.22.713-1.43 1.478-2.842 2.287-4.288.81-1.446 1.711-2.964 2.713-4.55a17.64 17.64 0 0 1 1.301-1.881c.38-.463.668-.692.871-.692.202 0 .253.156.253.474a5.67 5.67 0 0 1-.233 1.29 20.378 20.378 0 0 1-.759 2.188l-5.892 15.252 3.037-.67a41.975 41.975 0 0 1 2.126-4.885c.83-1.633 1.673-3.197 2.53-4.69a135.291 135.291 0 0 1 2.475-4.125c.79-1.256 1.428-2.294 1.939-3.12a236.482 236.482 0 0 0-2.161 3.907 188.5 188.5 0 0 0-2.354 4.55 187.668 187.668 0 0 0-2.196 4.528 98.422 98.422 0 0 0-1.696 3.813l2.531-.715a306.577 306.577 0 0 1 2.348-4.93 150.542 150.542 0 0 1 2.779-5.46 80.298 80.298 0 0 1 3.118-5.336 39.82 39.82 0 0 1 3.36-4.572 19.05 19.05 0 0 1 3.462-3.216 6.077 6.077 0 0 1 3.478-1.217c.378.003.752.093 1.098.262.364.178.69.439.956.765.296.361.527.78.684 1.234.179.559.261 1.15.243 1.742Zm-44.54 24.565a17.534 17.534 0 0 0-.587-4.573 11.886 11.886 0 0 0-1.519-3.41 6.753 6.753 0 0 0-2.196-2.122 5.27 5.27 0 0 0-2.652-.715 5.527 5.527 0 0 0-2.44.62 9.798 9.798 0 0 0-2.47 1.814 16.71 16.71 0 0 0-2.308 2.903 21.135 21.135 0 0 0-1.918 3.908 27.514 27.514 0 0 0-1.3 4.79c-.34 1.85-.51 3.734-.507 5.622-.02 1.835.15 3.667.506 5.46a23.32 23.32 0 0 0 1.048 3.74 36.446 36.446 0 0 1 4.145-5.845c.37-.434.76-.848 1.17-1.24a6.128 6.128 0 0 1-.163-1.479c.002-.493.036-.986.102-1.474.068-.502.176-.997.323-1.479a6.15 6.15 0 0 1 .557-1.284c.192-.35.458-.645.775-.86-.441.79-.791 1.638-1.043 2.524a8.455 8.455 0 0 0-.299 2.099c-.005.545.05 1.088.162 1.619a303.909 303.909 0 0 1 2.83-2.713 37.876 37.876 0 0 1 2.571-2.233 49.003 49.003 0 0 1 2.485-1.86 54.824 54.824 0 0 1 2.596-1.674c.031-.413.061-.788.081-1.117.021-.33.071-.726.071-1.044l-.02.023Zm11.474-.665c-.56.043-1.118.12-1.67.235-.643.128-1.316.284-2.025.48-.708.195-1.442.402-2.181.642a48.9 48.9 0 0 0-2.111.737c-.668.25-1.291.519-1.862.787-.472.22-.933.465-1.382.737a20.286 20.286 0 0 1-1.053 4.466 22.218 22.218 0 0 1-1.893 4.047 12.299 12.299 0 0 1-2.369 2.931 3.798 3.798 0 0 1-2.47 1.117 2.586 2.586 0 0 1-1.837-.86 6.772 6.772 0 0 1-1.462-2.858c-.932.88-1.78 1.862-2.531 2.93a84.486 84.486 0 0 0-2.698 3.981c1.012 2.233 2.09 3.88 3.265 4.885 1.076.96 2.416 1.49 3.801 1.502a6.488 6.488 0 0 0 3.543-1.268 22.398 22.398 0 0 0 3.846-3.35 46.67 46.67 0 0 0 3.867-4.739 78.24 78.24 0 0 0 3.639-5.532 90.797 90.797 0 0 0 3.148-5.695 61.978 61.978 0 0 0 2.455-5.197l-.02.022Zm-11.641 3.808a40.233 40.233 0 0 0-5.239 3.506 35.332 35.332 0 0 0-5.01 4.79 5.068 5.068 0 0 0 1.154 2.428 2.408 2.408 0 0 0 1.731.765 3.734 3.734 0 0 0 2.181-.838 9.347 9.347 0 0 0 2.171-2.333 17.407 17.407 0 0 0 1.838-3.623 21.819 21.819 0 0 0 1.174-4.718v.023Zm16.626-4.857-8.234 22.66c-.787 2.162-1.18 3.686-1.18 4.572 0 .413.086.62.253.62.248 0 .684-.453 1.316-1.357a25.275 25.275 0 0 0 2.308-4.885l8.64-22.33-3.103.72Zm6.767-18.981c0-.123-.03-.19-.091-.19-.157 0-.44.29-.855.86a24.152 24.152 0 0 0-1.291 1.998 83.224 83.224 0 0 0-2.53 4.388 132.524 132.524 0 0 0-2.025 3.98 259.233 259.233 0 0 0-1.837 3.858 305.655 305.655 0 0 1-1.939 4.076l2.936-.525 6.716-15.777c.263-.57.495-1.157.694-1.758.111-.295.185-.605.222-.922v.012Zm21.015-3.763a4.727 4.727 0 0 0-.233-1.524 3.452 3.452 0 0 0-.612-1.117 2.604 2.604 0 0 0-.866-.686 2.187 2.187 0 0 0-1.012-.24 5.335 5.335 0 0 0-3.072 1.166 18.893 18.893 0 0 0-3.255 3.099 39.919 39.919 0 0 0-3.234 4.432 73.747 73.747 0 0 0-3.001 5.148 71.515 71.515 0 0 0-2.531 5.264 58.7 58.7 0 0 0-1.847 4.762 50.658 50.658 0 0 0 4.884-2.166 41.422 41.422 0 0 0 4.596-2.69 34.432 34.432 0 0 0 4.049-3.194 23.396 23.396 0 0 0 3.224-3.646 17.153 17.153 0 0 0 2.136-4.097c.516-1.44.779-2.974.774-4.522v.01Z" fill="#D8CD7D"/><path d="M144.987 47.626a152.024 152.024 0 0 1-2.46 7.765c-.247.664-.445 1.35-.592 2.049a8.146 8.146 0 0 0-.147 1.48c.001.27.023.542.066.809.203.636.471.955.81.955.339 0 .855-.369 1.361-1.117.455-.631.876-1.291 1.261-1.976.359-.648.759-1.323 1.189-2.027l.162.335c-.218.352-.44.726-.673 1.117l-.678 1.166c-.223.38-.441.737-.648 1.072l-.506.832c-.24.294-.52.544-.83.743-.205.127-.434.2-.668.212a.858.858 0 0 1-.588-.212 1.93 1.93 0 0 1-.43-.598 3.803 3.803 0 0 1-.359-1.217c-.066-.48-.1-.965-.101-1.451a9.109 9.109 0 0 1 .116-1.675c-.172.447-.341.86-.506 1.24a12.33 12.33 0 0 1-.506 1.071 11.748 11.748 0 0 1-1.377 2.027c-.197.156-.42.324-.668.496a1.199 1.199 0 0 1-.693.263.545.545 0 0 1-.328-.098.635.635 0 0 1-.224-.282 5.988 5.988 0 0 1-.324-2.194 15.53 15.53 0 0 1 .197-2.428c.094-.68.245-1.35.451-1.999l4.555-14.202h1.179c-.152.558-.41 1.368-.764 2.479-.354 1.11-.754 2.367-1.21 3.762-.455 1.396-.911 2.909-1.417 4.46a264.647 264.647 0 0 0-1.397 4.434l-.324 1.021c-.121.402-.243.81-.354 1.24-.111.43-.213.843-.293 1.239-.067.32-.104.648-.112.977a2.13 2.13 0 0 0 .162 1 .5.5 0 0 0 .171.209.433.433 0 0 0 .244.08c.231-.02.449-.122.623-.29.237-.194.454-.417.648-.664a11.03 11.03 0 0 0 1.371-2.311 48.73 48.73 0 0 0 1.053-2.501l4.707-15.107h1.179a400.43 400.43 0 0 0-2.328 7.816Z" fill="#D8CD7D"/><path d="M159.66 41.764c.002.21-.029.42-.091.62a.636.636 0 0 1-.114.226.557.557 0 0 1-.19.153 3.336 3.336 0 0 0-.38-1.596.952.952 0 0 0-.324-.328.853.853 0 0 0-.425-.125 1.532 1.532 0 0 0-.845.313c-.31.217-.597.471-.855.76a6.915 6.915 0 0 0-.714.954 3.107 3.107 0 0 0-.405.882 14.876 14.876 0 0 0-1.012 2.356 46.42 46.42 0 0 0-.81 2.696c-.256.953-.518 1.969-.784 3.048a119.781 119.781 0 0 1-.927 3.529 52.69 52.69 0 0 0-.379 1.524 6.998 6.998 0 0 0-.172 1.568c0 .162 0 .402.045.715.053.424.216.822.471 1.144a1.2 1.2 0 0 0 .425.33 1.1 1.1 0 0 0 .511.1c.179 0 .358-.025.532-.072.215-.063.419-.167.602-.307a22.612 22.612 0 0 0 2.769-3.383 25.791 25.791 0 0 0 2.262-4.243l.162.525a199.28 199.28 0 0 1-.967 1.953c-.33.647-.69 1.275-1.078 1.882a18.833 18.833 0 0 1-2.991 3.645 2.39 2.39 0 0 1-1.382.558 1.448 1.448 0 0 1-1.073-.48 2.848 2.848 0 0 1-.658-1.144 1.737 1.737 0 0 1-.187-.715c-.033-.38-.048-.762-.046-1.144 0-.664 0-1.318.071-1.954a22.049 22.049 0 0 1-2.262 4.075c-.618.782-1.124 1.167-1.519 1.167a.797.797 0 0 1-.438-.134.917.917 0 0 1-.316-.363 3.992 3.992 0 0 1-.425-1.312 4.838 4.838 0 0 1-.106-.831v-.788a9.537 9.537 0 0 1 .324-2.646 3.718 3.718 0 0 1 .648-1.451c.089-.46.241-.902.45-1.312.142-.24.278-.358.4-.358.218 0 .324.257.324.765a1.9 1.9 0 0 1-.253.905c-.091.16-.217.292-.367.384a.937.937 0 0 1-.489.14 8.912 8.912 0 0 0-.587 1.502 6.648 6.648 0 0 0-.268 1.926c.005.433.044.864.116 1.29.264 1.206.623 1.809 1.089 1.809.769 0 1.746-1.478 2.93-4.433.091-.223.233-.603.415-1.145.182-.541.4-1.172.638-1.903.238-.731.506-1.519.739-2.362.233-.843.506-1.675.739-2.5a65.46 65.46 0 0 0 .622-2.334c.157-.629.284-1.266.38-1.91a5.54 5.54 0 0 0 .218-.999 6.77 6.77 0 0 0 .06-.854 2.25 2.25 0 0 0-.187-1.027.595.595 0 0 0-.206-.26.518.518 0 0 0-.3-.097.976.976 0 0 0-.648.334 3.995 3.995 0 0 0-.693 1l-.183-.335c.233-.346.507-.737.76-1.167a1.21 1.21 0 0 1 .368-.44 1.07 1.07 0 0 1 .512-.202c.183 0 .37.145.552.43.278.285.415.921.415 1.904a14.25 14.25 0 0 1-.137 1.881 15.927 15.927 0 0 1-.369 1.932c.245-.788.531-1.56.855-2.312.263-.586.537-1.15.83-1.674.248-.285.476-.559.684-.832.19-.253.394-.491.612-.715a2.37 2.37 0 0 1 .623-.48c.231-.116.484-.173.739-.167.388.021.771.12 1.128.29.194.16.336.386.405.642.098.314.144.645.137.977Z" fill="#D8CD7D"/><path d="M167.854 52.628c-.288.67-.627 1.496-1.012 2.478a29.16 29.16 0 0 1-1.26 2.836 11.227 11.227 0 0 1-1.519 2.312 2.514 2.514 0 0 1-.809.687 2.29 2.29 0 0 1-.993.267.91.91 0 0 1-.547-.192 1.067 1.067 0 0 1-.354-.5 3.654 3.654 0 0 1-.298-1.457 4.943 4.943 0 0 1 .081-.95c.055-.284.111-.557.172-.809-.167.441-.354.888-.567 1.335a8.72 8.72 0 0 1-.678 1.211 3.92 3.92 0 0 1-.82.905 1.532 1.532 0 0 1-.982.357.664.664 0 0 1-.355-.11.758.758 0 0 1-.257-.292 3.4 3.4 0 0 1-.38-.977 8.767 8.767 0 0 1-.197-1.262 14.246 14.246 0 0 1-.056-1.261c.007-1.26.131-2.515.369-3.747a33.665 33.665 0 0 1 2.364-7.603 25.517 25.517 0 0 1 1.645-3.065c.484-.79 1.055-1.51 1.701-2.144a2.4 2.4 0 0 1 1.569-.81.808.808 0 0 1 .392.145.922.922 0 0 1 .286.33 4.74 4.74 0 0 1 .506 1.765l.673-2.234h1.174c-.212.732-.541 1.82-.977 3.266l-1.442 4.706a2885.24 2885.24 0 0 1-1.584 5.192 210.936 210.936 0 0 0-1.387 4.695 7.33 7.33 0 0 0-.192.955 5.62 5.62 0 0 0-.061.81c0 .44.061.72.187.831a.72.72 0 0 0 .506.168c.321-.039.63-.155.906-.34.275-.185.511-.435.689-.732a15.19 15.19 0 0 0 1.488-2.479c.455-.938.845-1.837 1.179-2.69.334-.855.557-1.43.678-1.72.111.011.162.061.162.123Zm-2.353-10.395a3.935 3.935 0 0 0-.218-1.502.736.736 0 0 0-.228-.348.63.63 0 0 0-.364-.149c-.385 0-.82.346-1.301 1.05a16.413 16.413 0 0 0-1.478 2.735 43.035 43.035 0 0 0-1.468 3.769 71.027 71.027 0 0 0-1.28 4.142 44.084 44.084 0 0 0-.901 3.936 17.893 17.893 0 0 0-.334 3.048c-.005.376.033.75.111 1.116.081.335.223.503.441.503a1.27 1.27 0 0 0 .895-.436c.326-.348.61-.74.846-1.166a15.34 15.34 0 0 0 .774-1.625 29.57 29.57 0 0 0 .693-1.742c.092-.251.238-.698.441-1.334l.683-2.188.795-2.602c.276-.904.534-1.753.774-2.546.238-.792.435-1.48.597-2.048.162-.57.269-.938.314-1.117.03-.251.071-.525.127-.81a3.95 3.95 0 0 0 .081-.686Z" fill="#D8CD7D"/><path d="M174.56 47.626a145.349 145.349 0 0 1-2.459 7.765 14.34 14.34 0 0 0-.588 2.049 8.146 8.146 0 0 0-.151 1.48c.002.27.026.542.07.809.198.636.471.955.81.955.339 0 .851-.369 1.362-1.117.454-.63.874-1.29 1.255-1.976.364-.648.759-1.323 1.189-2.027l.162.335-.668 1.117c-.233.396-.455.787-.683 1.166-.228.38-.435.737-.643 1.072l-.506.832a3.735 3.735 0 0 1-.83.743 1.427 1.427 0 0 1-.668.212.877.877 0 0 1-.592-.212 1.893 1.893 0 0 1-.425-.598 3.694 3.694 0 0 1-.36-1.217c-.068-.48-.102-.965-.101-1.451a9.767 9.767 0 0 1 .111-1.675c-.167.447-.329.86-.506 1.24a12.33 12.33 0 0 1-1.103 2.071c-.241.357-.499.7-.775 1.027-.202.156-.425.324-.668.496-.203.16-.444.252-.693.263a.55.55 0 0 1-.33-.097.64.64 0 0 1-.227-.283 6.12 6.12 0 0 1-.324-2.194 15.41 15.41 0 0 1 .198-2.428 13.26 13.26 0 0 1 .45-1.999l4.555-14.202h1.18c-.157.558-.41 1.368-.765 2.479-.354 1.11-.759 2.367-1.209 3.762-.451 1.396-.932 2.875-1.433 4.433a363.71 363.71 0 0 0-1.397 4.433c-.096.284-.202.625-.323 1.021-.122.397-.243.81-.36 1.24-.116.43-.212.843-.288 1.239-.068.32-.107.648-.117.977a2.21 2.21 0 0 0 .162 1 .515.515 0 0 0 .171.208c.073.051.158.08.244.082.231-.019.45-.12.623-.29.238-.194.456-.417.648-.665.548-.7 1.011-1.478 1.376-2.311.405-.905.754-1.742 1.048-2.501l4.712-15.107h1.179a340.248 340.248 0 0 0-2.313 7.844Z" fill="#D8CD7D"/><path d="M187.345 40.43c-.308.033-.754.044-1.341.044-.663.129-1.321 1.217-1.984 3.266a304.573 304.573 0 0 1-1.812 5.454 400.721 400.721 0 0 1-2.024 5.672c-.544 1.24-.881 2.003-1.013 2.29a12.47 12.47 0 0 1-.506 1.071 11.759 11.759 0 0 1-1.377 2.026c-.197.157-.42.324-.668.498-.202.16-.444.252-.693.262a.54.54 0 0 1-.328-.097.629.629 0 0 1-.224-.283 6.008 6.008 0 0 1-.308-2.21c.034-1.127.161-2.248.379-3.35.253-1.43.619-1.86 1.098-1.29a9.153 9.153 0 0 1-.232 2.122c-.122.402-.243.81-.36 1.24a20.23 20.23 0 0 0-.288 1.238 5.426 5.426 0 0 0-.112.977 2.22 2.22 0 0 0 .157 1 .54.54 0 0 0 .176.205c.074.051.158.08.244.085.231-.02.449-.122.623-.29a4.2 4.2 0 0 0 .643-.665l.855-1.429c1.326-2.572 3.435-8.735 6.327-18.49h4.155a405.81 405.81 0 0 0-2.323 7.816 146.277 146.277 0 0 1-2.46 7.766c-.246.664-.442 1.35-.587 2.048a8.06 8.06 0 0 0-.152 1.48c.003.271.026.542.071.81.197.636.471.954.81.954.339 0 .85-.368 1.361-1.117.455-.63.874-1.29 1.256-1.976a64.33 64.33 0 0 1 1.189-2.026l.162.335-.668 1.116-.683 1.223-.658 1.116-.506.81a3.718 3.718 0 0 1-.831.742 1.41 1.41 0 0 1-.673.212.874.874 0 0 1-.587-.212 1.908 1.908 0 0 1-.425-.597 3.667 3.667 0 0 1-.359-1.217c-.07-.48-.106-.965-.107-1.452-.022-.9.071-1.798.279-2.668l4.504-14.51Zm57.062-8.804c-.446.413-.613.44-.506.095a13.19 13.19 0 0 0 .379-1.675 14.05 14.05 0 0 0 .208-2.501 4.426 4.426 0 0 0-.334-1.597c-.193-.43-.395-.647-.613-.647a.85.85 0 0 0-.405.132.951.951 0 0 0-.308.32 4.44 4.44 0 0 0-.567 1.24 11.321 11.321 0 0 0-.38 1.786 15.495 15.495 0 0 0-.136 2.099c.005.775.074 1.549.207 2.31a8.75 8.75 0 0 0 .967 2.692c.264.408.61.742 1.012.977a2.53 2.53 0 0 0 1.205.312c1.097-.043 2.142-.526 2.94-1.356a12.871 12.871 0 0 0 2.607-3.629 24.092 24.092 0 0 0 1.837-5.097 24.4 24.4 0 0 0 .704-5.862 18.981 18.981 0 0 0-.334-3.433 13.333 13.333 0 0 0-1.053-3.31 7.539 7.539 0 0 0-1.837-2.48 3.96 3.96 0 0 0-2.688-.976 5.994 5.994 0 0 0-3.578 1.29 16.994 16.994 0 0 0-3.407 3.45 36.22 36.22 0 0 0-3.163 5.024 72.902 72.902 0 0 0-2.819 5.979 96.645 96.645 0 0 0-2.389 6.314 105.067 105.067 0 0 0-1.868 6.051c-.803 2.386-1.523 4.357-2.161 5.912a65.47 65.47 0 0 1-2.11 4.623 51.767 51.767 0 0 1-2.496 4.382 28.135 28.135 0 0 1-2.783 3.696 14.331 14.331 0 0 1-2.956 2.546 5.661 5.661 0 0 1-3.037.954 5.483 5.483 0 0 1-2.025-.402 9.44 9.44 0 0 1-2.363-1.501c-.761.51-1.571.925-2.415 1.239a7.76 7.76 0 0 1-2.758.52 5.2 5.2 0 0 1-3.037-1 8.672 8.672 0 0 1-2.53-2.903 17.193 17.193 0 0 1-1.716-4.623 27.03 27.03 0 0 1-.638-6.14c-.022-2.373.24-4.738.78-7.035a21.155 21.155 0 0 1 1.984-5.309 10.585 10.585 0 0 1 2.768-3.35 5.139 5.139 0 0 1 3.118-1.166 5.035 5.035 0 0 1 3.143 1.021 6.23 6.23 0 0 1 2.025 2.742 6.655 6.655 0 0 1 2.571-2.005 7.028 7.028 0 0 1 2.647-.558 5.036 5.036 0 0 1 2.53.67 6.169 6.169 0 0 1 2.101 2.049 11.485 11.485 0 0 1 1.452 3.55c.393 1.704.577 3.458.547 5.215a18.184 18.184 0 0 1-.466 4.17 14.783 14.783 0 0 1-1.245 3.478 7.924 7.924 0 0 1-1.812 2.384 3.27 3.27 0 0 1-2.135.882 2.89 2.89 0 0 1-1.306-.313 3.591 3.591 0 0 1-1.144-.876 16.588 16.588 0 0 1-1.417 3.573 14.44 14.44 0 0 1-2.485 3.383c.598.505 1.231.959 1.892 1.356a3.762 3.762 0 0 0 1.944.558c1.113-.06 2.177-.522 3.027-1.317a16.717 16.717 0 0 0 2.935-3.266 38.627 38.627 0 0 0 2.678-4.466 81.832 81.832 0 0 0 2.298-4.835 90.481 90.481 0 0 0 1.766-4.388 563.2 563.2 0 0 0 1.64-4.522 159.894 159.894 0 0 1 2.262-6.553 90.729 90.729 0 0 1 2.617-6.354 65.247 65.247 0 0 1 2.946-5.767 32.813 32.813 0 0 1 3.254-4.695 15.806 15.806 0 0 1 3.543-3.165 6.937 6.937 0 0 1 3.796-1.167 4.477 4.477 0 0 1 2.819.927 7.09 7.09 0 0 1 1.984 2.501 13.72 13.72 0 0 1 1.164 3.623c.26 1.396.389 2.818.385 4.243a26.755 26.755 0 0 1-2.46 11.165 12.686 12.686 0 0 1-2.622 3.763c-.858.892-1.984 1.403-3.163 1.435a3.396 3.396 0 0 1-1.468-.335 3.227 3.227 0 0 1-1.255-1.145 9.178 9.178 0 0 1-1.123-3.143 19.586 19.586 0 0 1-.218-2.79c.002-.687.052-1.372.152-2.05a12.92 12.92 0 0 1 .425-1.954 4.99 4.99 0 0 1 .683-1.473c.102-.166.237-.302.395-.4.159-.097.335-.151.516-.159.4 0 .739.374 1.012 1.117a5.48 5.48 0 0 1 .37 2.233l-.106 1.881a6.774 6.774 0 0 1-.4 1.826Zm-33.876 2.233c-.457-1.125-1.203-2.078-2.146-2.741a5.004 5.004 0 0 0-2.723-.787 4.92 4.92 0 0 0-3.072 1.166 10.392 10.392 0 0 0-2.612 3.266 20.32 20.32 0 0 0-1.812 5.053 29.036 29.036 0 0 0-.678 6.526c-.028 2.04.188 4.074.643 6.051.363 1.57.949 3.065 1.736 4.433a8.17 8.17 0 0 0 2.531 2.74 5.33 5.33 0 0 0 2.966.933 7.38 7.38 0 0 0 2.414-.43 8.492 8.492 0 0 0 2.156-1.116 7.66 7.66 0 0 1-1.407-2.094 18.53 18.53 0 0 1-1.154-2.858c-.294.095-.577.173-.845.235a3.287 3.287 0 0 1-.795.094 2.992 2.992 0 0 1-2.024-.759 5.757 5.757 0 0 1-1.423-2.004 12.111 12.111 0 0 1-.83-2.741 16.841 16.841 0 0 1-.273-3.026c-.004-.959.076-1.916.238-2.858a9.794 9.794 0 0 1 .729-2.429 4.75 4.75 0 0 1 1.225-1.674 2.604 2.604 0 0 1 1.731-.62 2.107 2.107 0 0 0-1.519.692 5.735 5.735 0 0 0-1.154 1.809 11.646 11.646 0 0 0-.729 2.529 15.436 15.436 0 0 0-.253 2.791c-.001.94.096 1.876.289 2.791.172.86.443 1.694.804 2.48a5.49 5.49 0 0 0 1.271 1.763c.47.433 1.063.668 1.675.665.266 0 .532-.023.795-.067.302-.06.595-.164.87-.313a23.389 23.389 0 0 1-.582-5.287c.005-1.236.079-2.47.223-3.696.131-1.29.352-2.566.663-3.818a24.66 24.66 0 0 1 1.245-3.595 14.45 14.45 0 0 1 1.822-3.104h.005Zm1.362 7.006a19.064 19.064 0 0 0-.299-3.35 15.78 15.78 0 0 0-.713-2.79 13.554 13.554 0 0 0-1.721 2.975 24.334 24.334 0 0 0-1.215 3.573 28.653 28.653 0 0 0-.714 3.835 31.083 31.083 0 0 0-.233 3.673 15.404 15.404 0 0 0 .507 4.238 7.272 7.272 0 0 0 1.958-2.144 13.26 13.26 0 0 0 1.367-2.976c.359-1.123.625-2.28.795-3.456.174-1.184.262-2.383.263-3.584l.005.006Zm10.345.854a17.173 17.173 0 0 0-.46-4.17 10.898 10.898 0 0 0-1.246-3.093 6.038 6.038 0 0 0-1.827-1.931 4.023 4.023 0 0 0-2.217-.67c-.852.005-1.701.118-2.53.335-1.074.36-2.021 1.075-2.713 2.048.39 1.14.665 2.323.82 3.529.166 1.206.254 2.425.263 3.645a21.785 21.785 0 0 1-.334 3.835 20.427 20.427 0 0 1-.936 3.506 14.369 14.369 0 0 1-1.443 2.903 7.217 7.217 0 0 1-1.857 2.005c.218.839.511 1.652.875 2.428a8.217 8.217 0 0 0 1.731 2.479c.355-.338.693-.695 1.013-1.072.409-.468.785-.97 1.123-1.502.396-.62.746-1.273 1.048-1.954.354-.79.629-1.622.82-2.479a3.917 3.917 0 0 1-.668-1.334 7.067 7.067 0 0 1-.324-2.283 6.8 6.8 0 0 1 .217-1.742c.147-.558.35-.832.613-.832s.557.29.693.882a8.04 8.04 0 0 1 .208 1.831c-.004.51-.034 1.019-.091 1.525a17.56 17.56 0 0 1-.299 1.814c.266.336.591.608.956.8.364.192.761.3 1.165.316a3.208 3.208 0 0 0 2.055-.787 6.82 6.82 0 0 0 1.71-2.233 14.09 14.09 0 0 0 1.18-3.405c.306-1.442.458-2.919.45-4.4l.005.006Zm-7.364 6.482a6.766 6.766 0 0 0-.172-1.43 2.993 2.993 0 0 0-.198-.558c-.075-.162-.162-.24-.253-.24-.172 0-.308.246-.415.737-.099.414-.154.84-.162 1.267.004.577.066 1.152.183 1.714.093.527.307 1.02.622 1.43.241-.954.372-1.937.39-2.926l.005.006Zm18.428-6.621a72.84 72.84 0 0 0-1.139 6.794 46.876 46.876 0 0 0-.278 4.74c0 2.64.319 4.521.947 5.649.25.51.621.934 1.073 1.229.451.295.968.449 1.493.446a4.5 4.5 0 0 0 2.272-.692 10.567 10.567 0 0 0 2.344-1.904 19.164 19.164 0 0 0 2.196-2.836 23.086 23.086 0 0 0 1.832-3.478 23.057 23.057 0 0 0 1.271-3.908 17.49 17.49 0 0 0 .476-4.025 5.493 5.493 0 0 0-.38-2.361 1.224 1.224 0 0 0-.396-.523 1.058 1.058 0 0 0-.586-.214c-.739 0-1.483.476-2.232 1.429a15.975 15.975 0 0 0-2.025 3.573 28.14 28.14 0 0 0-1.488 4.622 20.287 20.287 0 0 0-.577 4.578c-.001.875.075 1.748.228 2.607a15.548 15.548 0 0 1-.303-3.288c.019-1.561.213-3.114.577-4.623a27.384 27.384 0 0 1 1.518-4.695 15.477 15.477 0 0 1 2.09-3.623c.775-.966 1.559-1.451 2.344-1.451.27.009.533.1.759.263.226.164.406.393.521.663.334.62.506 1.647.506 3.076a16.43 16.43 0 0 1-.46 3.74 27.448 27.448 0 0 1-3.083 7.627 22.08 22.08 0 0 1-2.227 3.12 11.575 11.575 0 0 1-2.424 2.166 4.455 4.455 0 0 1-2.424.81 3.39 3.39 0 0 1-2.025-.664 5.44 5.44 0 0 1-1.604-2.005 12.266 12.266 0 0 1-1.053-3.31 25.657 25.657 0 0 1-.37-4.6c.006-1.355.104-2.709.294-4.048.334-2.078.792-4.13 1.372-6.14a79.87 79.87 0 0 1 3.543-10.05 59.728 59.728 0 0 1 3.649-7.123 35.986 35.986 0 0 1 3.517-4.907 60.218 60.218 0 0 1 3.164-3.383 143.487 143.487 0 0 0-3.3 4.405 43.28 43.28 0 0 0-3.118 5.125 61.435 61.435 0 0 0-3.037 6.86c-1.032 2.654-2.186 6.095-3.462 10.323l.005.006Zm23.637 4.187a4.785 4.785 0 0 1-.436.094 3.145 3.145 0 0 1-1.655-.502 5.868 5.868 0 0 1-1.3-1.022 42.765 42.765 0 0 1-.8 3.98 47.51 47.51 0 0 1-1.316 4.428 41.278 41.278 0 0 1-1.731 4.22 16.048 16.048 0 0 1-2.025 3.289 2.39 2.39 0 0 1-1.518.81c-.754 0-1.129-.872-1.129-2.625.014-.781.075-1.56.183-2.333a47.05 47.05 0 0 1 .602-3.288 47.77 47.77 0 0 1 .936-3.624 46.085 46.085 0 0 1 1.2-3.5 25.155 25.155 0 0 1 1.397-3.026 9.037 9.037 0 0 1 1.548-2.121 2.37 2.37 0 0 1 1.64-.787.655.655 0 0 1 .402.125c.119.086.212.21.266.355.15.365.259.75.324 1.144v1.474a3.89 3.89 0 0 1-.045.62c.045.067.157.24.334.524.157.261.356.488.587.67.326.307.693.555 1.088.737.302.133.622.205.947.212.257.002.508-.09.713-.262.171-.127.326-.28.461-.452v.285c-.161.268-.398.47-.673.575Zm-3.624-4.053a2.522 2.522 0 0 0-.198-1.022c-.131-.301-.3-.452-.506-.452-.435 0-.901.402-1.397 1.211a21.105 21.105 0 0 0-1.518 3.076 49.428 49.428 0 0 0-1.478 4.12 107.737 107.737 0 0 0-1.281 4.36 152.465 152.465 0 0 0-.961 3.74 53.619 53.619 0 0 0-.506 2.312c-.025.185-.04.371-.046.558 0 .86.248 1.284.739 1.284.26-.013.512-.103.729-.262.339-.246.632-.56.865-.927a25.315 25.315 0 0 0 2.136-3.908 41.372 41.372 0 0 0 1.767-4.695 39.703 39.703 0 0 0 1.199-4.885c.286-1.483.438-2.994.456-4.51Z" fill="#D8CD7D"/><path d="M262.253 41.859a3.84 3.84 0 0 1-.385 1.736 11.98 11.98 0 0 1-.931 1.597l-.071-.33c.315-.398.582-.839.795-1.312a3.64 3.64 0 0 0 .197-1.312c0-1.206-.268-1.808-.81-1.808-.415 0-.953.54-1.614 1.619a25.365 25.365 0 0 0-1.594 3.17 51.245 51.245 0 0 0-1.595 4.238 50.276 50.276 0 0 0-1.209 4.5 18.724 18.724 0 0 0-.507 3.957 5.19 5.19 0 0 0 .314 1.977c.071.216.201.404.373.535a.946.946 0 0 0 .584.202 2.836 2.836 0 0 0 1.974-.882 10.501 10.501 0 0 0 1.7-2.094 17.4 17.4 0 0 0 1.291-2.479c.285-.66.541-1.337.764-2.026h.274a27.122 27.122 0 0 1-1.164 3.076 15.789 15.789 0 0 1-1.453 2.568 7.39 7.39 0 0 1-1.701 1.764 3.171 3.171 0 0 1-1.867.648 1.43 1.43 0 0 1-.931-.356 1.697 1.697 0 0 1-.537-.912 9.863 9.863 0 0 1-.425-3.12 21.82 21.82 0 0 1 .288-3.35c.198-1.253.46-2.492.785-3.712a32.44 32.44 0 0 1 1.199-3.674 20.777 20.777 0 0 1 1.549-3.165 9.682 9.682 0 0 1 1.777-2.233 2.884 2.884 0 0 1 1.928-.838.712.712 0 0 1 .457.144c.135.1.237.246.292.415.162.465.248.958.253 1.457Z" fill="#D8CD7D"/><path d="M268.428 47.626a146.277 146.277 0 0 1-2.46 7.765c-.246.664-.442 1.35-.587 2.049a8.059 8.059 0 0 0-.152 1.48c.003.27.026.542.071.809.197.636.471.954.81.954.339 0 .85-.368 1.361-1.116.455-.63.874-1.29 1.256-1.976.364-.648.759-1.323 1.189-2.027l.162.335-.668 1.117-.683 1.166c-.223.38-.436.737-.643 1.072l-.506.832a3.735 3.735 0 0 1-.83.743c-.207.127-.437.2-.674.212a.876.876 0 0 1-.587-.212 1.924 1.924 0 0 1-.425-.598 3.667 3.667 0 0 1-.359-1.217c-.07-.48-.106-.965-.107-1.451a9.77 9.77 0 0 1 .117-1.675c-.169.447-.338.86-.506 1.24a11.2 11.2 0 0 1-1.868 3.098c-.202.156-.425.324-.668.496-.203.16-.444.252-.693.263a.552.552 0 0 1-.331-.097.639.639 0 0 1-.226-.283 6.104 6.104 0 0 1-.324-2.182 15.53 15.53 0 0 1 .197-2.429c.099-.679.25-1.348.451-1.999l4.555-14.202h1.179a85.65 85.65 0 0 1-.764 2.479c-.354 1.11-.759 2.367-1.21 3.763-.45 1.395-.936 2.875-1.432 4.432-.496 1.558-.967 3.032-1.397 4.433a43.227 43.227 0 0 0-.683 2.261c-.117.43-.213.843-.289 1.24a5.41 5.41 0 0 0-.116.976c-.024.343.031.687.162 1a.514.514 0 0 0 .171.208c.073.051.157.08.244.082a.997.997 0 0 0 .622-.29c.239-.194.456-.416.648-.665a11 11 0 0 0 1.377-2.311c.405-.905.754-1.742 1.048-2.501l4.712-15.107h1.179a449.246 449.246 0 0 0-2.323 7.833Z" fill="#D8CD7D"/><path d="m276.845 48.1 2.485-8.53 1.2-.285a469.027 469.027 0 0 0-2.364 8.374 178.51 178.51 0 0 1-2.485 8.318 17.911 17.911 0 0 0-.623 2.233c-.1.492-.154.993-.162 1.496.001.257.025.514.071.765.213.559.506.827.83.765.324-.061.856-.62 1.362-1.48.476-.764.906-1.518 1.28-2.266.375-.748.785-1.513 1.215-2.305l.162.284c-.233.413-.461.843-.683 1.284-.223.441-.451.894-.679 1.334a30.6 30.6 0 0 1-.673 1.24l-.506.955a5.99 5.99 0 0 1-.865.926c-.2.172-.421.31-.658.408a.74.74 0 0 1-.587-.05 1.193 1.193 0 0 1-.431-.475 3.233 3.233 0 0 1-.359-1.144 10.089 10.089 0 0 1-.101-1.38c.016-.943.14-1.881.369-2.79l2.025-7.007-3.417-.19a.737.737 0 0 1-.071.24c-1.292 4.667-2.392 8.67-3.299 12.009l-1.2.19c1.539-5.91 2.671-10.2 3.396-12.869v-.24h.046a135.3 135.3 0 0 1 .83-2.997c.293-.953.551-1.804.774-2.552.223-.748.451-1.58.678-2.5h1.271c-.338 1.239-1.092 3.939-2.263 8.1l3.442.145-.01-.006Z" fill="#D8CD7D"/><path d="M287.838 41.859a3.84 3.84 0 0 1-.385 1.736 11.98 11.98 0 0 1-.931 1.597l-.071-.33c.315-.398.582-.839.795-1.312.14-.421.202-.869.182-1.317 0-1.206-.268-1.809-.81-1.809-.415 0-.953.54-1.614 1.619a25.508 25.508 0 0 0-1.595 3.17 51.61 51.61 0 0 0-1.594 4.238 50.42 50.42 0 0 0-1.22 4.505 18.79 18.79 0 0 0-.506 3.958 5.19 5.19 0 0 0 .314 1.977c.067.22.194.413.365.55.17.137.375.212.587.215a2.836 2.836 0 0 0 1.974-.883 10.536 10.536 0 0 0 1.7-2.093 17.4 17.4 0 0 0 1.291-2.479c.285-.66.54-1.337.764-2.026h.273a26.747 26.747 0 0 1-1.164 3.076 15.71 15.71 0 0 1-1.452 2.568 7.409 7.409 0 0 1-1.701 1.764 3.172 3.172 0 0 1-1.868.648 1.432 1.432 0 0 1-.931-.356 1.702 1.702 0 0 1-.536-.912 9.864 9.864 0 0 1-.426-3.12c.011-1.124.107-2.245.289-3.35.197-1.253.459-2.492.784-3.712a32.444 32.444 0 0 1 1.2-3.674 20.68 20.68 0 0 1 1.549-3.165 9.705 9.705 0 0 1 1.776-2.233 2.888 2.888 0 0 1 1.929-.838.713.713 0 0 1 .457.144c.135.1.237.246.292.415.169.454.265.938.283 1.429Z" fill="#D8CD7D"/><path d="M289.362 49.005c2.024-4.158 3.543-6.936 4.555-8.335 1.295-1.813 2.308-2.53 3.037-2.15.236.135.436.336.58.583.144.247.227.531.24.824a3.78 3.78 0 0 1-.243 2.1c-.279.647-.598.937-.972.853-.375-.083-.506-.497-.365-1.261a3.473 3.473 0 0 0 0-1.597c-.116-.301-.283-.452-.506-.452-.756.067-1.965 1.72-3.629 4.957a285.933 285.933 0 0 0-2.53 4.667c.251.107.479.273.666.487.187.214.329.471.417.753a5.83 5.83 0 0 1 .395 2.149 9.434 9.434 0 0 1-.152 1.619c-.102.558-.208 1.15-.324 1.736a51.767 51.767 0 0 0-.314 1.764 10.91 10.91 0 0 0-.137 1.675c-.023.377.062.752.243 1.072.162.235.314.357.451.357.445 0 .926-.34 1.442-1.027a18.673 18.673 0 0 0 1.519-2.406c.489-.92.943-1.84 1.361-2.764.415-.92.739-1.618.972-2.099h.253c-.309.732-.683 1.597-1.134 2.602-.435.98-.916 1.934-1.442 2.858a13.237 13.237 0 0 1-1.605 2.29 2.4 2.4 0 0 1-.722.643 2.185 2.185 0 0 1-.892.283c-.339 0-.618-.24-.83-.715a3.837 3.837 0 0 1-.324-1.619c0-.263.015-.526.045-.787.031-.268.066-.558.117-.882.05-.324.111-.737.207-1.261.096-.525.182-1.056.273-1.597.092-.542.178-1.055.243-1.552a8.61 8.61 0 0 0 .107-1.167 3.199 3.199 0 0 0-.279-1.641.79.79 0 0 0-.243-.282.699.699 0 0 0-.334-.126.445.445 0 0 0-.324.145l-3.345 11.434h-1.088l4.099-13.84c1.181-3.99 2.047-6.984 2.597-8.982l1.341-.19c-.513 1.396-.894 2.512-1.144 3.35a538.32 538.32 0 0 1-.774 2.573l-.775 2.624c-.263.81-.506 1.602-.733 2.334Zm14.925-1.379a140.086 140.086 0 0 1-2.459 7.765c-.246.664-.442 1.35-.587 2.049a8.059 8.059 0 0 0-.152 1.48 5.1 5.1 0 0 0 .071.809c.197.636.47.954.809.954.339 0 .851-.368 1.362-1.116.455-.63.874-1.29 1.255-1.976.365-.648.759-1.323 1.189-2.027l.162.335-.668 1.117-.683 1.166c-.223.38-.435.737-.643 1.072l-.506.832a3.735 3.735 0 0 1-.83.743 1.42 1.42 0 0 1-.673.212.874.874 0 0 1-.587-.212 1.909 1.909 0 0 1-.425-.598 3.694 3.694 0 0 1-.36-1.217 10.2 10.2 0 0 1-.106-1.451 9.67 9.67 0 0 1 .116-1.675c-.167.447-.329.86-.506 1.24a12.33 12.33 0 0 1-1.103 2.071c-.241.357-.499.7-.774 1.027a22.14 22.14 0 0 1-.669.496c-.203.16-.444.252-.693.263a.55.55 0 0 1-.33-.097.64.64 0 0 1-.227-.283 6.12 6.12 0 0 1-.324-2.194 15.41 15.41 0 0 1 .198-2.428 13.26 13.26 0 0 1 .45-1.999l4.555-14.202h1.18c-.157.558-.41 1.368-.765 2.479-.354 1.11-.759 2.367-1.209 3.762-.451 1.396-.937 2.875-1.433 4.433-.496 1.558-.966 3.031-1.396 4.433-.097.284-.203.625-.324 1.021-.122.397-.243.81-.36 1.24-.116.43-.212.843-.288 1.239-.068.32-.107.648-.117.977a2.21 2.21 0 0 0 .162 1 .515.515 0 0 0 .171.208c.073.051.158.08.244.082.231-.019.45-.12.623-.29.238-.194.456-.417.648-.665.548-.7 1.011-1.478 1.376-2.311.405-.905.755-1.742 1.048-2.501l4.712-15.107h1.179a481.121 481.121 0 0 0-2.313 7.844Z" fill="#D8CD7D"/><path d="M313.241 47.626a152.024 152.024 0 0 1-2.46 7.765 13.658 13.658 0 0 0-.587 2.049 8.059 8.059 0 0 0-.152 1.48c0 .271.024.542.071.809.199.636.467.955.805.955.4 0 .855-.369 1.361-1.117.458-.629.879-1.289 1.261-1.976.359-.648.759-1.323 1.189-2.027l.162.335c-.219.35-.442.722-.668 1.117l-.683 1.166c-.223.38-.441.737-.648 1.072l-.506.832a3.643 3.643 0 0 1-.836.743 1.37 1.37 0 0 1-.668.212.865.865 0 0 1-.587-.212 2.015 2.015 0 0 1-.43-.598 3.691 3.691 0 0 1-.354-1.217c-.07-.48-.106-.965-.107-1.451a9.77 9.77 0 0 1 .117-1.675c-.172.447-.329.86-.506 1.24-.15.367-.319.725-.506 1.071-.182.347-.383.68-.603 1-.24.356-.497.699-.769 1.027-.202.156-.425.324-.673.496a1.18 1.18 0 0 1-.694.263.544.544 0 0 1-.327-.098.628.628 0 0 1-.224-.282 5.988 5.988 0 0 1-.324-2.194 15.53 15.53 0 0 1 .197-2.428c.097-.68.247-1.348.451-1.999l4.555-14.202h1.174a85.74 85.74 0 0 1-.759 2.479 512.551 512.551 0 0 1-1.215 3.762c-.455 1.402-.931 2.875-1.432 4.433a346.98 346.98 0 0 0-1.397 4.433l-.324 1.021c-.122.402-.243.81-.354 1.24-.112.43-.213.843-.289 1.239a5.08 5.08 0 0 0-.116.977 2.13 2.13 0 0 0 .162 1 .505.505 0 0 0 .17.209.44.44 0 0 0 .245.08c.23-.02.449-.122.622-.29.238-.194.455-.417.648-.664a10.759 10.759 0 0 0 1.372-2.311 48.73 48.73 0 0 0 1.053-2.501l4.712-15.107h1.174a411.91 411.91 0 0 0-2.303 7.844Zm-1.331-13.868c0 .095 0-.335-.066-1.29a8.038 8.038 0 0 1 .127-1.858c.116-.631.354-1 .713-1.117.36-.117.623.274.775 1.117.151.843-.137 1.909-.876 3.243.055.363.193.704.401.992.208.287.48.51.788.65.638.305 1.404-.123 2.298-1.284a19.37 19.37 0 0 0 2.121-3.35c.091.225.107.478.046.715l-.82 1.457c-.238.424-.456.781-.658 1.071-.965 1.552-1.996 2.297-3.093 2.233-.972-.357-1.554-1.21-1.771-2.579h.015Z" fill="#D8CD7D"/><path d="M91.767 66.668H321" stroke="#E2D088" stroke-width="2" stroke-miterlimit="10"/></g><defs><linearGradient id="b" x1="22.675" y1="22.582" x2="58.301" y2="22.582" gradientUnits="userSpaceOnUse"><stop stop-color="#F6EAD0"/><stop offset=".5" stop-color="#ECD6A5"/><stop offset=".57" stop-color="#EBD4A0"/><stop offset="1" stop-color="#E6CA89"/></linearGradient><linearGradient id="c" x1="11335.3" y1="17598.9" x2="13614.7" y2="17598.9" gradientUnits="userSpaceOnUse"><stop stop-color="#F6EAD0"/><stop offset=".5" stop-color="#ECD6A5"/><stop offset=".57" stop-color="#EBD4A0"/><stop offset="1" stop-color="#E6CA89"/></linearGradient><linearGradient id="d" x1="11857" y1="10191.8" x2="16298.8" y2="10191.8" gradientUnits="userSpaceOnUse"><stop stop-color="#F6EAD0"/><stop offset=".5" stop-color="#ECD6A5"/><stop offset=".57" stop-color="#EBD4A0"/><stop offset="1" stop-color="#E6CA89"/></linearGradient><linearGradient id="e" x1="8424.35" y1="18719.2" x2="10702" y2="18719.2" gradientUnits="userSpaceOnUse"><stop stop-color="#F6EAD0"/><stop offset=".5" stop-color="#ECD6A5"/><stop offset=".57" stop-color="#EBD4A0"/><stop offset="1" stop-color="#E6CA89"/></linearGradient><linearGradient id="f" x1="10202" y1="20413.3" x2="12737.8" y2="20413.3" gradientUnits="userSpaceOnUse"><stop stop-color="#F6EAD0"/><stop offset=".5" stop-color="#ECD6A5"/><stop offset=".57" stop-color="#EBD4A0"/><stop offset="1" stop-color="#E6CA89"/></linearGradient><linearGradient id="g" x1="14421.8" y1="11724.2" x2="18848.9" y2="11724.2" gradientUnits="userSpaceOnUse"><stop stop-color="#F6EAD0"/><stop offset=".5" stop-color="#ECD6A5"/><stop offset=".57" stop-color="#EBD4A0"/><stop offset="1" stop-color="#E6CA89"/></linearGradient><clipPath id="a"><path fill="#fff" d="M0 0h321v103H0z"/></clipPath></defs></svg>