<svg width="28" height="29" fill="none" xmlns="http://www.w3.org/2000/svg"><path fill-rule="evenodd" clip-rule="evenodd" d="M13.992 28.354c7.55-.009 13.665-6.143 13.656-13.702C27.64 7.092 21.512.972 13.961.98 6.411.99.297 7.124.305 14.683c.009 7.559 6.137 13.68 13.687 13.671Zm6.254-11.184-3.485-.23-5.729-6.34c-.247-.277-.367.062-.143.432l4.945 7.826-1.05 3.385c-.223.73-.725.737-1.086-.163L8.605 8.902c-.274-.602.143-1.183 1.064-.954l10.57 2.233c.752.156.932.61.586 1.24l-2.52 3.422 1.598 1.642.015.016c.18.184.327.336.328.668Z" fill="#D1C7AD"/></svg>