<svg width="60" height="60" fill="none" xmlns="http://www.w3.org/2000/svg"><path d="M29.941.234c5 0 9.082.059 12.247.176 2.695.117 5.097.586 7.206 1.406 2.032.782 3.79 1.914 5.274 3.399 1.484 1.484 2.617 3.242 3.398 5.273.82 2.11 1.29 4.512 1.407 7.207.117 3.164.175 7.246.175 12.246s-.058 9.082-.175 12.247c-.117 2.695-.586 5.097-1.407 7.206-.78 2.032-1.914 3.79-3.398 5.274-1.484 1.484-3.242 2.617-5.273 3.398-2.11.82-4.512 1.29-7.208 1.407-3.164.117-7.246.175-12.246.175s-9.082-.058-12.246-.175c-2.695-.117-5.097-.586-7.207-1.407-2.031-.78-3.789-1.914-5.273-3.398-1.485-1.484-2.617-3.242-3.399-5.273-.82-2.11-1.289-4.512-1.406-7.208-.117-3.164-.176-7.246-.176-12.246S.293 20.86.41 17.695c.117-2.695.586-5.097 1.406-7.207C2.598 8.457 3.73 6.7 5.215 5.215c1.484-1.485 3.242-2.617 5.273-3.399C12.598.996 15 .527 17.695.41 20.86.293 24.941.234 29.941.234Zm0 3.868c-5.195 0-9.433.058-12.714.175-2.11.078-4.063.45-5.86 1.114-2.812 1.171-4.805 3.164-5.976 5.976-.664 1.797-1.036 3.75-1.114 5.86-.117 3.28-.175 7.52-.175 12.714 0 5.196.058 9.434.175 12.715.078 2.11.45 4.063 1.114 5.86 1.171 2.812 3.164 4.804 5.976 5.976 1.797.664 3.75 1.035 5.86 1.114 3.28.117 7.52.175 12.714.175 5.196 0 9.434-.058 12.715-.175 2.11-.079 4.063-.45 5.86-1.114 2.812-1.172 4.804-3.164 5.976-5.976.664-1.797 1.035-3.75 1.114-5.86.117-3.281.175-7.52.175-12.715s-.058-9.433-.175-12.714c-.079-2.11-.45-4.063-1.114-5.86-1.172-2.812-3.164-4.805-5.976-5.976-1.797-.664-3.75-1.036-5.86-1.114-3.281-.117-7.52-.175-12.715-.175Zm0 37.734c3.282 0 6.084-1.162 8.409-3.486 2.324-2.325 3.486-5.127 3.486-8.409 0-3.28-1.162-6.084-3.486-8.408-2.325-2.324-5.127-3.486-8.409-3.486-3.28 0-6.084 1.162-8.408 3.486-2.324 2.324-3.486 5.127-3.486 8.408 0 3.282 1.162 6.084 3.486 8.409 2.324 2.324 5.127 3.486 8.408 3.486Zm0-27.129c4.22 0 7.813 1.484 10.782 4.453 2.968 2.969 4.453 6.563 4.453 10.781 0 4.22-1.485 7.813-4.453 10.782-2.97 2.968-6.563 4.453-10.782 4.453-4.218 0-7.812-1.485-10.78-4.453-2.97-2.97-4.454-6.563-4.454-10.782 0-4.218 1.484-7.812 4.453-10.78 2.969-2.97 6.563-4.454 10.781-4.454Zm19.454-.586c0 .977-.352 1.807-1.055 2.49-.703.684-1.563 1.026-2.578 1.026-.977 0-1.807-.342-2.49-1.026-.684-.683-1.026-1.513-1.026-2.49 0-1.016.342-1.875 1.026-2.578.683-.703 1.513-1.055 2.49-1.055.976 0 1.826.362 2.548 1.084.723.723 1.084 1.573 1.084 2.55Z" fill="#D1C7AD"/></svg>