<svg width="29" height="29" fill="none" xmlns="http://www.w3.org/2000/svg"><path fill-rule="evenodd" clip-rule="evenodd" d="M.977 14.873c.331 7.551 6.714 13.405 14.258 13.074 7.543-.332 13.39-6.722 13.059-14.274C27.964 6.122 21.58.268 14.037.6 6.493.93.647 7.32.977 14.873Zm17.921-1.902c.148.128.189.39.189.39l.038.872s.197 1.918-1.457 3.688c-1.806 1.93-5.477 3.726-5.477 3.726s-.242.105-.364.008c-.139-.109-.161-.421-.161-.421l-.105-2.084s.023-.197.119-.342a.642.642 0 0 1 .232-.192s.82-.373 1.556-.852c1.437-.936 1.742-1.355 1.57-1.644-.249-.42-2.098-.21-2.098-.21s-.673.022-.963.26c-.225.184-.278.515-.29.66-.011.12-.287-.062-.417-.306-.197-.367-.236-1.029-.263-1.812-.02-.61.01-.787.056-1.028.106-.559.526-.56 1.433-.562.271-.001.586-.002.948-.018.082-.003.169-.005.258-.006.465-.008.996-.016 1.18-.336.094-.165-.01-.551-1.678-1.456-.79-.43-1.712-.736-1.712-.736s-.165-.07-.239-.184c-.076-.118-.061-.281-.061-.281l-.11-2.193s-.106-.655.182-.774c.3-.126 1.03.2 2.241 1.046 1.148.8 1.575 1.196 1.935 1.142.264-.039.49-.318.938-.855.933-1.12 1.436-1.431 1.557-1.506l.022-.014c.764-.517.87.498.87.498l.113 1.947s.099.415-.248.982c-.181.297-.486.593-.776.874-.443.43-.852.828-.737 1.147.193.536 1.339.469 1.339.469s.245-.015.38.102Z" fill="#fff"/></svg>