<svg width="60" height="60" fill="none" xmlns="http://www.w3.org/2000/svg"><path d="M52.232 27.034H37.5V15.309h-4.821c1.492-1.817 2.294-4.028 2.284-6.298 0-3.375-1.752-6.547-4.572-8.277L29.195 0l-1.196.734c-2.82 1.73-4.572 4.902-4.572 8.277-.01 2.27.793 4.481 2.285 6.298h-5.355v11.724H7.767c-2.059.002-4.033.75-5.49 2.077C.822 30.438.003 32.24 0 34.117v21.975c.001 1.036.453 2.03 1.257 2.762C2.06 59.587 3.149 60 4.286 60h51.428c1.136-.001 2.226-.413 3.03-1.146.803-.733 1.255-1.726 1.256-2.762V34.117c-.002-1.878-.822-3.678-2.278-5.006-1.456-1.328-3.43-2.075-5.49-2.078ZM29.195 4.986c.936 1.06 1.482 2.5 1.482 4.025 0 1.526-.546 2.965-1.482 4.026-.936-1.06-1.482-2.5-1.482-4.026 0-1.525.546-2.964 1.482-4.025Zm-4.552 14.231h8.571v7.817h-8.571v-7.817Zm-20.357 14.9c0-.842.368-1.649 1.02-2.244a3.664 3.664 0 0 1 2.462-.931h44.464a3.664 3.664 0 0 1 2.461.93c.653.596 1.02 1.403 1.021 2.245v3.856l-2.893 1.164a4.828 4.828 0 0 1-1.795.345c-.618 0-1.23-.118-1.795-.345l-5.035-2.025-5.035 2.025a4.829 4.829 0 0 1-1.796.345c-.618 0-1.23-.118-1.795-.345l-5.034-2.026-5.036 2.026a4.829 4.829 0 0 1-1.795.344c-.618 0-1.23-.117-1.796-.344l-5.034-2.025-5.035 2.025a4.828 4.828 0 0 1-1.795.344c-.618 0-1.23-.117-1.795-.344l-3.964-1.594v-3.426Zm51.428 21.975H4.286V41.814l2.233.899a9.48 9.48 0 0 0 3.526.676 9.48 9.48 0 0 0 3.525-.676l3.305-1.33 3.305 1.33a9.48 9.48 0 0 0 3.525.676c1.214 0 2.415-.23 3.526-.676l3.305-1.33 3.305 1.33a9.479 9.479 0 0 0 3.525.676c1.214 0 2.414-.23 3.525-.676l3.305-1.33 3.306 1.33a9.48 9.48 0 0 0 3.525.676c1.213 0 2.414-.23 3.525-.676l1.164-.468.001 13.847h-.003Z" fill="#D1C7AD"/></svg>