<svg width="60" height="60" fill="none" xmlns="http://www.w3.org/2000/svg"><path d="M28.071 56.248a1.88 1.88 0 0 1 1.879 1.876A1.875 1.875 0 0 1 28.07 60a1.88 1.88 0 0 1-1.878-1.876 1.875 1.875 0 0 1 1.878-1.876Zm11.27 0a1.879 1.879 0 0 1 1.877 1.876A1.875 1.875 0 0 1 39.34 60a1.88 1.88 0 0 1-1.878-1.876 1.875 1.875 0 0 1 1.878-1.876Zm-16.904-3.753a1.88 1.88 0 0 1 1.878 1.876 1.875 1.875 0 0 1-1.878 1.877 1.879 1.879 0 0 1-1.878-1.877 1.875 1.875 0 0 1 1.878-1.876Zm11.269 0a1.88 1.88 0 0 1 1.878 1.876 1.875 1.875 0 0 1-1.878 1.877 1.88 1.88 0 0 1-1.878-1.877 1.875 1.875 0 0 1 1.878-1.876Zm11.269 0a1.88 1.88 0 0 1 1.878 1.876 1.875 1.875 0 0 1-1.878 1.877 1.88 1.88 0 0 1-1.878-1.877 1.875 1.875 0 0 1 1.878-1.876Zm-11.27-37.524c9.26 0 14.512 5.902 15.274 13.036h.233C55.169 28.007 60 32.648 60 38.375c0 5.726-4.83 10.368-10.788 10.368H18.2c-5.958 0-10.788-4.642-10.788-10.368 0-5.727 4.83-10.368 10.788-10.368h.233c.77-7.183 6.014-13.036 15.273-13.036Zm0 3.752c-6.197 0-11.595 4.766-11.595 11.351 0 1.043-.954 1.861-2.047 1.861h-2.066c-3.771-.003-6.829 2.924-6.829 6.526s3.058 6.53 6.829 6.53h31.418c3.771 0 6.829-2.928 6.829-6.53 0-3.602-3.058-6.53-6.83-6.53H47.35c-1.09.004-2.047-.814-2.047-1.857 0-6.668-5.398-11.35-11.596-11.35Zm-27.033 6.38a1.875 1.875 0 0 1-.853 2.25l-.312.136-3.009 1.035a1.88 1.88 0 0 1-2.333-1.002 1.874 1.874 0 0 1 .8-2.409l.309-.135 3.012-1.035a1.88 1.88 0 0 1 2.386 1.163v-.004Zm19.22-15.761c1.252.608 2.352 1.4 3.284 2.326a18.854 18.854 0 0 0-4.267 1.408 8.571 8.571 0 0 0-10.747 1.567 8.551 8.551 0 0 0-.567 10.834 14.1 14.1 0 0 0-3.475 1.576 12.299 12.299 0 0 1 1.161-14.832 12.324 12.324 0 0 1 14.612-2.879ZM3.345 9.98l.311.12 2.863 1.392a1.877 1.877 0 0 1-1.33 3.494l-.316-.12-2.862-1.393A1.877 1.877 0 0 1 3.34 9.98h.004Zm26.568-8.912a1.877 1.877 0 0 1 .984 2.195l-.12.315-1.394 2.86a1.878 1.878 0 0 1-3.497-1.329l.12-.319 1.398-2.86a1.877 1.877 0 0 1 2.509-.862ZM15.676.948l.139.307 1.036 3.01a1.875 1.875 0 0 1-1.008 2.322 1.88 1.88 0 0 1-2.406-.795l-.135-.308-1.037-3.005A1.874 1.874 0 0 1 13.274.165a1.88 1.88 0 0 1 2.402.783Z" fill="#D1C7AD"/></svg>