<svg width="29" height="29" fill="none" xmlns="http://www.w3.org/2000/svg"><path fill-rule="evenodd" clip-rule="evenodd" d="M14.63 28.525c7.547.195 13.824-5.773 14.018-13.33.194-7.556-5.767-13.84-13.315-14.034C7.785.967 1.51 6.935 1.314 14.491 1.12 22.047 7.081 28.33 14.63 28.525Zm.049-22.282c4.48.117 8.031 3.86 7.917 8.345v.004a8.138 8.138 0 0 1-1.089 3.862l1.02 4.342-4.182-1.263a8.108 8.108 0 0 1-4.09.982c-4.482-.118-8.033-3.861-7.918-8.346a8.09 8.09 0 0 1 2.531-5.694 8.075 8.075 0 0 1 5.811-2.232Z" fill="#fff"/><path fill-rule="evenodd" clip-rule="evenodd" d="m20.646 20.793-.605-2.577.153-.243a6.76 6.76 0 0 0 1.03-3.417v-.003c.096-3.727-2.856-6.839-6.58-6.936a6.712 6.712 0 0 0-4.83 1.855 6.722 6.722 0 0 0-2.104 4.73c-.096 3.73 2.856 6.841 6.58 6.939a6.736 6.736 0 0 0 3.621-.941l.26-.154 2.475.747Zm-4.328-10.19c.072-.14.12-.234.19-.273.086-.049.492-.038.962.143.47.182.882 1.005.93 1.397.044.352.054.796-.113 1.279a11.82 11.82 0 0 1-.457 1.148c-.871 1.884-2.75 3.124-3.105 3.359a2.567 2.567 0 0 0-.05.034l-.003.002c-.146.104-1.126.8-2.12.774-.935-.024-1.414-.497-1.634-.714a4.688 4.688 0 0 0-.041-.041.747.747 0 0 1-.24-.549 8.095 8.095 0 0 1 .018-.435c.003-.118.006-.266.359-.403l.55-.21c.43-.164.905-.345.974-.378.103-.048.222-.079.356-.007l.057.03c.102.053.178.093.276.182l.123.107c.083.072.166.144.225.207.099.104.206.213.413.1.206-.114.881-.505 1.435-1.095a5.237 5.237 0 0 0 .986-1.476c.026-.055.047-.1.064-.133.107-.2.093-.32-.04-.441-.132-.123-.58-.524-.779-.665-.2-.14-.162-.275-.09-.46.073-.184.59-1.171.697-1.372.02-.039.04-.075.057-.11Z" fill="#fff"/></svg>