<svg class="menu__navigation__icons-link-svg" width="28" height="28" fill="none" xmlns="http://www.w3.org/2000/svg"><path fill-rule="evenodd" clip-rule="evenodd" d="M27.46 14.078C27.395 6.519 21.22.445 13.67.51 6.121.575.053 6.755.118 14.314c.065 7.559 6.239 13.633 13.789 13.568 7.55-.065 13.618-6.246 13.553-13.804Zm-6.45-2.954c.042.778.053 1.027.07 3.01v-.003c.017 1.983.01 2.231-.018 3.01-.029.778-.147 1.31-.323 1.776-.182.482-.428.89-.83 1.3a3.58 3.58 0 0 1-1.284.854c-.462.183-.991.31-1.767.354-.778.042-1.026.053-3.006.07-1.98.017-2.228.01-3.006-.018-.777-.03-1.308-.148-1.773-.324a3.58 3.58 0 0 1-1.299-.831 3.572 3.572 0 0 1-.852-1.285c-.185-.463-.312-.993-.354-1.77-.043-.778-.053-1.026-.07-3.008-.018-1.983-.011-2.231.018-3.01.029-.777.147-1.309.323-1.775.182-.481.428-.89.83-1.3.402-.41.807-.662 1.285-.853.462-.184.99-.312 1.767-.354.777-.042 1.025-.053 3.005-.07 1.98-.017 2.229-.01 3.007.018.776.028 1.307.146 1.773.323.48.183.89.43 1.298.832.41.402.662.807.852 1.285.184.463.312.992.354 1.77Z" fill="#fff"/><path fill-rule="evenodd" clip-rule="evenodd" d="m19.76 13.49.004.412.002.243c.017 1.949.012 2.18-.016 2.95-.027.712-.142 1.099-.24 1.357a2.258 2.258 0 0 1-.538.844 2.261 2.261 0 0 1-.834.553c-.255.102-.64.225-1.35.263-.77.042-1 .052-2.946.068-1.946.017-2.177.012-2.946-.017-.71-.026-1.098-.142-1.355-.24a2.253 2.253 0 0 1-.842-.538 2.257 2.257 0 0 1-.553-.835c-.103-.256-.224-.641-.263-1.353-.042-.769-.051-1-.068-2.949-.017-1.949-.011-2.18.017-2.95.027-.712.142-1.099.24-1.357.13-.342.285-.587.538-.844a2.26 2.26 0 0 1 .833-.554c.256-.102.64-.224 1.351-.263.769-.042 1-.05 2.947-.067s2.177-.012 2.945.016c.712.027 1.099.142 1.356.24.342.13.586.286.844.539.257.253.417.495.553.835.102.256.224.641.263 1.353.036.673.047.934.06 2.294h-.001Zm-1.17 4.562a.875.875 0 1 0-1.752.014.875.875 0 0 0 1.752-.014Zm-4.833-7.604a3.747 3.747 0 0 1 3.776 3.716 3.747 3.747 0 0 1-3.712 3.78 3.746 3.746 0 0 1-3.776-3.715 3.746 3.746 0 0 1 3.712-3.78Z" fill="#fff"/><path d="M16.22 14.176a2.432 2.432 0 0 1-2.41 2.454 2.432 2.432 0 0 1-2.452-2.412 2.432 2.432 0 1 1 4.86-.042Z" fill="#fff"/></svg>