<svg width="60" height="60" fill="none" xmlns="http://www.w3.org/2000/svg"><path d="M24.087 5.063c-.75 0-1.42-.25-2.013-.75s-.889-1.094-.889-1.782c0-.687.296-1.281.889-1.781.592-.5 1.263-.75 2.013-.75.774 0 1.475.25 2.104.75s.943 1.094.943 1.781c0 .688-.314 1.281-.943 1.781s-1.33.75-2.104.75Zm10.665 0c-.774 0-1.463-.25-2.068-.75-.604-.5-.906-1.094-.906-1.782 0-.687.302-1.281.906-1.781.605-.5 1.294-.75 2.068-.75s1.463.25 2.068.75c.604.5.907 1.094.907 1.781 0 .688-.303 1.281-.907 1.781-.605.5-1.294.75-2.068.75Zm22.745 50.624h-2.503V45.5c0 .896-.484 1.661-1.451 2.297-.967.635-2.152.953-3.555.953-1.379 0-2.551-.318-3.519-.953-.967-.636-1.45-1.401-1.45-2.297 0 .896-.49 1.661-1.47 2.297-.98.635-2.158.953-3.537.953-1.378 0-2.557-.318-3.537-.953-.98-.636-1.469-1.401-1.469-2.297 0 .896-.49 1.661-1.47 2.297-.979.635-2.158.953-3.536.953-1.378 0-2.557-.318-3.537-.953-.98-.636-1.469-1.401-1.469-2.297 0 .896-.49 1.661-1.47 2.297-.979.635-2.158.953-3.536.953-1.379 0-2.552-.318-3.519-.953-.967-.636-1.45-1.401-1.45-2.297 0 .896-.49 1.661-1.47 2.297-.98.635-2.158.953-3.537.953-1.378 0-2.557-.318-3.537-.953-.98-.636-1.469-1.401-1.469-2.297v10.188H2.503c-.701 0-1.294.208-1.777.624C.242 56.73 0 57.24 0 57.844s.242 1.114.726 1.531c.483.417 1.076.625 1.777.625h54.994c.701 0 1.294-.208 1.778-.625.483-.417.725-.927.725-1.531 0-.604-.242-1.115-.725-1.532-.484-.416-1.077-.624-1.778-.624ZM45.018 41.47c0 .896.484 1.661 1.451 2.297.968.635 2.14.953 3.519.953 1.403 0 2.588-.313 3.555-.938.967-.625 1.451-1.396 1.451-2.312v-1.907c0-.895-.339-1.661-1.016-2.296-.677-.636-1.511-.953-2.503-.953H8.597c-.991 0-1.838.317-2.539.953-.701.635-1.052 1.4-1.052 2.297v1.906c0 .896.49 1.661 1.47 2.297.979.635 2.158.953 3.536.953 1.379 0 2.557-.318 3.537-.953.98-.636 1.47-1.401 1.47-2.297 0 .896.483 1.661 1.45 2.297.967.635 2.14.953 3.519.953 1.378 0 2.557-.318 3.537-.953.98-.636 1.469-1.401 1.469-2.297 0 .896.49 1.661 1.47 2.297.979.635 2.158.953 3.536.953 1.378 0 2.557-.318 3.537-.953.98-.636 1.469-1.401 1.469-2.297 0 .896.49 1.661 1.47 2.297.979.635 2.158.953 3.536.953 1.379 0 2.557-.318 3.537-.953.98-.636 1.47-1.401 1.47-2.297Zm0-7.313v-10.5c0 .896-.49 1.667-1.469 2.313-.98.646-2.158.968-3.537.968-1.378 0-2.557-.322-3.537-.968-.98-.646-1.469-1.417-1.469-2.313 0 .896-.49 1.667-1.47 2.313-.979.646-2.158.968-3.536.968-1.378 0-2.557-.322-3.537-.968-.98-.646-1.469-1.417-1.469-2.313 0 .896-.49 1.667-1.47 2.313-.979.646-2.158.968-3.536.968-1.379 0-2.552-.317-3.519-.953-.967-.635-1.45-1.411-1.45-2.328v10.5h30ZM30.472 14.781h8.488L36.13 9.72V7.906c0-.354-.145-.531-.435-.531H33.7c-.266 0-.399.177-.399.531V9.72l-2.83 5.062Zm10.52 0h1.233c.822 0 1.493.307 2.013.922.52.615.78 1.38.78 2.297v1.625c0 .896-.49 1.667-1.469 2.313-.98.645-2.158.968-3.537.968-1.378 0-2.557-.323-3.537-.968-.98-.646-1.469-1.417-1.469-2.313 0 .896-.49 1.667-1.47 2.313-.979.645-2.158.968-3.536.968-1.378 0-2.557-.323-3.537-.968-.98-.646-1.469-1.417-1.469-2.313 0 .896-.49 1.667-1.47 2.313-.979.645-2.158.968-3.536.968-1.379 0-2.552-.317-3.519-.953-.967-.635-1.45-1.411-1.45-2.328V18c0-.896.29-1.656.87-2.281.58-.625 1.282-.938 2.104-.938h3.7v-4H20.06V7.22c0-.23.164-.49.49-.782.327-.291.61-.437.853-.437h5.477c.242 0 .52.146.835.438.314.291.471.552.471.78v3.563H26.59v4h1.85c.435-.958 1.44-2.77 3.011-5.437V7.188c0-.23.175-.485.526-.766.35-.281.671-.422.961-.422h3.555c.29 0 .611.14.962.422.35.281.526.536.526.766v2.156c1.572 2.666 2.575 4.479 3.01 5.437Z" fill="#D1C7AD"/></svg>